<svg width="28" height="28" viewBox="0 0 28 28" fill="none" xmlns="http://www.w3.org/2000/svg">
<path fill-rule="evenodd" clip-rule="evenodd" d="M14 3.47119C7.94187 3.47119 3.03125 8.38182 3.03125 14.4399C3.03125 20.4981 7.94187 25.4087 14 25.4087C20.0581 25.4087 24.9688 20.4981 24.9688 14.4399C24.9688 8.38182 20.0581 3.47119 14 3.47119ZM4.71875 14.4399C4.71937 12.4845 5.33757 10.5792 6.48516 8.99598C7.63274 7.41271 9.25107 6.23234 11.1092 5.6233C12.9674 5.01425 14.9704 5.00765 16.8326 5.60443C18.6947 6.20121 20.3208 7.37088 21.4788 8.94655C22.6368 10.5222 23.2675 12.4234 23.281 14.3788C23.2945 16.3341 22.6901 18.2438 21.554 19.8353C20.4179 21.4269 18.8081 22.6189 16.9544 23.2413C15.1007 23.8638 13.0978 23.8849 11.2314 23.3016C11.7072 22.555 12.0853 21.7504 12.3564 20.9076L12.9369 18.6834C13.1768 19.0263 13.4987 19.3037 13.8732 19.4903C14.2477 19.677 14.6629 19.767 15.0811 19.7522C17.933 19.7522 19.9377 17.1602 19.9377 13.9404C19.9377 10.8478 17.4121 8.53707 14.1733 8.53707C10.1379 8.53707 7.99475 11.2483 7.99475 14.1947C7.99475 15.5706 8.72262 17.2738 9.8915 17.8217C10.0647 17.9016 10.1784 17.8217 10.2054 17.6946C10.2324 17.5674 10.3921 16.9273 10.4653 16.6326C10.4769 16.5861 10.4769 16.5375 10.4653 16.491C10.4537 16.4445 10.4309 16.4015 10.3989 16.3659C9.9559 15.7445 9.72189 14.9983 9.73063 14.2352C9.72861 13.6876 9.83766 13.1453 10.0512 12.641C10.2647 12.1368 10.5783 11.6811 10.973 11.3014C11.3676 10.9218 11.8352 10.6262 12.3473 10.4324C12.8595 10.2386 13.4056 10.1507 13.9528 10.1739C14.4652 10.144 14.9782 10.2211 15.4591 10.4005C15.9401 10.5799 16.3783 10.8575 16.7459 11.2157C17.1136 11.5739 17.4025 12.0048 17.5943 12.481C17.7861 12.9571 17.8765 13.4679 17.8599 13.9809C17.8599 16.5054 16.5774 18.2627 14.9214 18.2627C14.7074 18.279 14.4927 18.2435 14.2954 18.1593C14.098 18.0751 13.9238 17.9446 13.7876 17.7789C13.6513 17.6131 13.5569 17.417 13.5124 17.2071C13.468 16.9972 13.4747 16.7797 13.532 16.5729C13.6265 16.1792 13.7525 15.7731 13.874 15.3771C14.0956 14.6593 14.3071 13.9764 14.3071 13.4601C14.3301 13.2922 14.3166 13.1214 14.2675 12.9592C14.2184 12.797 14.1349 12.6474 14.0226 12.5205C13.9104 12.3936 13.772 12.2924 13.6171 12.2239C13.4621 12.1554 13.2942 12.1212 13.1248 12.1236C12.1888 12.1236 11.4339 13.0989 11.4339 14.3949C11.4271 14.8528 11.5126 15.3073 11.6881 15.7314L10.5856 20.4069C10.4516 21.2906 10.4516 22.1895 10.5856 23.0732C9.85887 22.7856 9.17162 22.4068 8.54037 21.9459C6.98961 20.8145 5.82526 19.2326 5.20588 17.4156C4.8814 16.4571 4.71683 15.4518 4.71875 14.4399Z" fill="#311807"/>
</svg>
