<svg width="20" height="21" viewBox="0 0 20 21" fill="none" xmlns="http://www.w3.org/2000/svg">
<path fill-rule="evenodd" clip-rule="evenodd" d="M18.6875 5.04506L10.7963 11.5801C10.572 11.7658 10.29 11.8675 9.99875 11.8675C9.70755 11.8675 9.42549 11.7658 9.20125 11.5801L1.31375 5.04506C1.27143 5.17245 1.2499 5.30583 1.25 5.44006V15.4401C1.25 15.7716 1.3817 16.0895 1.61612 16.3239C1.85054 16.5584 2.16848 16.6901 2.5 16.6901H17.5C17.8315 16.6901 18.1495 16.5584 18.3839 16.3239C18.6183 16.0895 18.75 15.7716 18.75 15.4401V5.44006C18.7505 5.3059 18.7294 5.17252 18.6875 5.04506ZM2.5 2.94006H17.5C18.163 2.94006 18.7989 3.20346 19.2678 3.6723C19.7366 4.14114 20 4.77702 20 5.44006V15.4401C20 16.1031 19.7366 16.739 19.2678 17.2078C18.7989 17.6767 18.163 17.9401 17.5 17.9401H2.5C1.83696 17.9401 1.20107 17.6767 0.732233 17.2078C0.263392 16.739 0 16.1031 0 15.4401V5.44006C0 4.77702 0.263392 4.14114 0.732233 3.6723C1.20107 3.20346 1.83696 2.94006 2.5 2.94006ZM2.2375 4.19006L9.2075 9.94381C9.43073 10.1282 9.71105 10.2294 10.0006 10.23C10.2901 10.2307 10.5709 10.1309 10.795 9.94756L17.835 4.19006H2.2375Z" fill="#311807"/>
</svg>
