<svg width="9" height="13" viewBox="0 0 9 13" fill="none" xmlns="http://www.w3.org/2000/svg">
<path d="M7.8418 2.41061C8.00821 2.41061 8.14314 2.27568 8.14314 2.10927V1.10481C8.14314 0.938391 8.00821 0.803467 7.8418 0.803467H0.408761C0.242347 0.803467 0.107422 0.938391 0.107422 1.10481V2.2285C0.107422 2.39491 0.242347 2.52984 0.408761 2.52984H2.55028C3.23603 2.52984 3.76219 2.7799 4.08133 3.21418H0.408761C0.242347 3.21418 0.107422 3.34911 0.107422 3.51552V4.51998C0.107422 4.6864 0.242347 4.82132 0.408761 4.82132H4.3954C4.23929 5.7275 3.5677 6.29367 2.51814 6.29367H0.408761C0.242347 6.29367 0.107422 6.42859 0.107422 6.59501V7.92622C0.107422 8.01032 0.142578 8.0906 0.204378 8.14766L4.3491 11.9736C4.40476 12.0249 4.47773 12.0535 4.55348 12.0535H6.62675C6.90107 12.0535 7.0327 11.7168 6.83113 11.5307L3.04224 8.03325C4.96325 7.97449 6.33548 6.69241 6.51563 4.82132H7.8418C8.00821 4.82132 8.14314 4.6864 8.14314 4.51998V3.51552C8.14314 3.34911 8.00821 3.21418 7.8418 3.21418H6.368C6.28046 2.92437 6.16007 2.65555 6.01011 2.41061H7.8418Z" fill="#FC0404"/>
</svg>
