<svg width="8" height="12" viewBox="0 0 8 12" fill="none" xmlns="http://www.w3.org/2000/svg">
<path d="M6.875 2.1428C7.02292 2.1428 7.14286 2.02287 7.14286 1.87495V0.982091C7.14286 0.834166 7.02292 0.714233 6.875 0.714233H0.267857C0.119933 0.714233 0 0.834166 0 0.982091V1.98093C0 2.12885 0.119933 2.24879 0.267857 2.24879H2.17143C2.78098 2.24879 3.24868 2.47106 3.53237 2.85709H0.267857C0.119933 2.85709 0 2.97702 0 3.12495V4.0178C0 4.16573 0.119933 4.28566 0.267857 4.28566H3.81154C3.67277 5.09115 3.0758 5.59441 2.14286 5.59441H0.267857C0.119933 5.59441 0 5.71434 0 5.86227V7.04557C0 7.12033 0.03125 7.19169 0.086183 7.2424L3.77038 10.6432C3.81986 10.6889 3.88472 10.7142 3.95205 10.7142H5.79496C6.03879 10.7142 6.1558 10.4149 5.97663 10.2495L2.60873 7.14071C4.31629 7.08847 5.53605 5.94885 5.69618 4.28566H6.875C7.02292 4.28566 7.14286 4.16573 7.14286 4.0178V3.12495C7.14286 2.97702 7.02292 2.85709 6.875 2.85709H5.56496C5.48714 2.59948 5.38013 2.36053 5.24683 2.1428H6.875Z" fill="#311807"/>
</svg>
