<svg width="38" height="34" viewBox="0 0 38 34" fill="none" xmlns="http://www.w3.org/2000/svg">
<path d="M9.33366 5.5C5.65233 5.5 2.66699 8.45467 2.66699 12.1C2.66699 15.0427 3.83366 22.0267 15.3177 29.0867C15.5236 29.2111 15.7597 29.2769 16.0003 29.2769C16.241 29.2769 16.477 29.2111 16.683 29.0867C28.1683 22.0267 29.3337 15.0427 29.3337 12.1C29.3337 8.45467 26.3483 5.5 22.667 5.5C18.9857 5.5 16.0003 9.5 16.0003 9.5C16.0003 9.5 13.015 5.5 9.33366 5.5Z" stroke="#311807" stroke-width="2" stroke-linecap="round" stroke-linejoin="round"/>
<circle cx="29.7056" cy="8.20562" r="7.70562" fill="#FFB729"/>
<path d="M29.748 11.6817C29.213 11.6817 28.7573 11.5361 28.3809 11.2449C28.0044 10.9514 27.7168 10.5264 27.5179 9.97006C27.3191 9.41135 27.2196 8.73663 27.2196 7.94591C27.2196 7.15993 27.3191 6.48876 27.5179 5.93242C27.7192 5.37371 28.008 4.94757 28.3844 4.65401C28.7632 4.35808 29.2177 4.21012 29.748 4.21012C30.2783 4.21012 30.7317 4.35808 31.1081 4.65401C31.4869 4.94757 31.7757 5.37371 31.9746 5.93242C32.1758 6.48876 32.2765 7.15993 32.2765 7.94591C32.2765 8.73663 32.177 9.41135 31.9782 9.97006C31.7793 10.5264 31.4917 10.9514 31.1152 11.2449C30.7388 11.5361 30.2831 11.6817 29.748 11.6817ZM29.748 10.9005C30.2783 10.9005 30.6903 10.6448 30.9838 10.1334C31.2774 9.62205 31.4242 8.89288 31.4242 7.94591C31.4242 7.31618 31.3567 6.77996 31.2218 6.33725C31.0892 5.89454 30.8974 5.55718 30.6465 5.32517C30.3979 5.09317 30.0984 4.97716 29.748 4.97716C29.2225 4.97716 28.8117 5.23639 28.5158 5.75486C28.2199 6.27096 28.0719 7.00131 28.0719 7.94591C28.0719 8.57565 28.1382 9.11068 28.2708 9.55103C28.4033 9.99137 28.5939 10.3264 28.8425 10.556C29.0935 10.7856 29.3953 10.9005 29.748 10.9005Z" fill="white"/>
</svg>
