<svg width="33" height="34" viewBox="0 0 33 34" fill="none" xmlns="http://www.w3.org/2000/svg">
<path d="M23.0775 25.5C23.7847 25.5 24.463 25.7809 24.9631 26.281C25.4632 26.7811 25.7441 27.4594 25.7441 28.1666C25.7441 28.8739 25.4632 29.5521 24.9631 30.0522C24.463 30.5523 23.7847 30.8333 23.0775 30.8333C22.3702 30.8333 21.692 30.5523 21.1919 30.0522C20.6918 29.5521 20.4108 28.8739 20.4108 28.1666C20.4108 26.6866 21.5975 25.5 23.0775 25.5ZM1.74414 4.16663H6.10414L7.35747 6.83329H27.0775C27.4311 6.83329 27.7702 6.97377 28.0203 7.22382C28.2703 7.47387 28.4108 7.813 28.4108 8.16663C28.4108 8.39329 28.3441 8.61996 28.2508 8.83329L23.4775 17.46C23.0241 18.2733 22.1441 18.8333 21.1441 18.8333H11.2108L10.0108 21.0066L9.97081 21.1666C9.97081 21.255 10.0059 21.3398 10.0684 21.4023C10.1309 21.4648 10.2157 21.5 10.3041 21.5H25.7441V24.1666H9.74414C9.0369 24.1666 8.35862 23.8857 7.85852 23.3856C7.35843 22.8855 7.07747 22.2072 7.07747 21.5C7.07747 21.0333 7.19747 20.5933 7.39747 20.22L9.21081 16.9533L4.41081 6.83329H1.74414V4.16663ZM9.74414 25.5C10.4514 25.5 11.1297 25.7809 11.6298 26.281C12.1299 26.7811 12.4108 27.4594 12.4108 28.1666C12.4108 28.8739 12.1299 29.5521 11.6298 30.0522C11.1297 30.5523 10.4514 30.8333 9.74414 30.8333C9.0369 30.8333 8.35862 30.5523 7.85852 30.0522C7.35843 29.5521 7.07747 28.8739 7.07747 28.1666C7.07747 26.6866 8.26414 25.5 9.74414 25.5ZM21.7441 16.1666L25.4508 9.49996H8.59747L11.7441 16.1666H21.7441Z" fill="#311807"/>
<circle cx="25.1161" cy="8.205" r="7.705" fill="#FFB729"/>
<path d="M25.1592 11.6815C24.6241 11.6815 24.1684 11.5359 23.792 11.2447C23.4156 10.9511 23.1279 10.5262 22.9291 9.96982C22.7302 9.4111 22.6308 8.73639 22.6308 7.94567C22.6308 7.15968 22.7302 6.48852 22.9291 5.93217C23.1303 5.37346 23.4191 4.94732 23.7955 4.65376C24.1743 4.35784 24.6289 4.20987 25.1592 4.20987C25.6895 4.20987 26.1428 4.35784 26.5193 4.65376C26.8981 4.94732 27.1869 5.37346 27.3857 5.93217C27.587 6.48852 27.6876 7.15968 27.6876 7.94567C27.6876 8.73639 27.5882 9.4111 27.3893 9.96982C27.1904 10.5262 26.9028 10.9511 26.5264 11.2447C26.1499 11.5359 25.6942 11.6815 25.1592 11.6815ZM25.1592 10.9002C25.6895 10.9002 26.1014 10.6445 26.395 10.1332C26.6885 9.6218 26.8353 8.89264 26.8353 7.94567C26.8353 7.31593 26.7678 6.77971 26.6329 6.337C26.5003 5.89429 26.3086 5.55694 26.0576 5.32493C25.809 5.09292 25.5096 4.97692 25.1592 4.97692C24.6336 4.97692 24.2229 5.23615 23.9269 5.75462C23.631 6.27071 23.483 7.00107 23.483 7.94567C23.483 8.5754 23.5493 9.11044 23.6819 9.55078C23.8145 9.99112 24.0051 10.3261 24.2536 10.5558C24.5046 10.7854 24.8064 10.9002 25.1592 10.9002Z" fill="white"/>
</svg>
