<svg width="22" height="22" viewBox="0 0 22 22" fill="none" xmlns="http://www.w3.org/2000/svg">
<path d="M11 0.939941C8.15056 0.939941 7.79225 0.953066 6.67269 1.00294C5.55312 1.05544 4.79056 1.23132 4.1225 1.49119C3.42142 1.75412 2.78656 2.16765 2.26269 2.70263C1.72771 3.2265 1.31418 3.86136 1.05125 4.56244C0.791375 5.22919 0.614188 5.99307 0.563 7.10869C0.513125 8.23088 0.5 8.58788 0.5 11.4413C0.5 14.292 0.513125 14.649 0.563 15.7686C0.6155 16.8868 0.791375 17.6494 1.05125 18.3174C1.32031 19.0078 1.67863 19.5932 2.26269 20.1773C2.84544 20.7613 3.43081 21.1209 4.12119 21.3887C4.79056 21.6486 5.55181 21.8258 6.67006 21.8769C7.79094 21.9268 8.14794 21.9399 11 21.9399C13.8521 21.9399 14.2078 21.9268 15.3286 21.8769C16.4456 21.8244 17.2108 21.6486 17.8788 21.3887C18.5794 21.1256 19.2138 20.7121 19.7373 20.1773C20.3214 19.5932 20.6797 19.0078 20.9487 18.3174C21.2073 17.6494 21.3845 16.8868 21.437 15.7686C21.4869 14.649 21.5 14.292 21.5 11.4399C21.5 8.58788 21.4869 8.23088 21.437 7.11C21.3845 5.99307 21.2073 5.22919 20.9487 4.56244C20.6858 3.86136 20.2723 3.2265 19.7373 2.70263C19.2134 2.16765 18.5786 1.75412 17.8775 1.49119C17.2081 1.23132 16.4443 1.05413 15.3273 1.00294C14.2064 0.953066 13.8507 0.939941 10.9974 0.939941H11ZM10.0589 2.83257H11.0013C13.8048 2.83257 14.1369 2.84175 15.2433 2.89294C16.2671 2.93888 16.8236 3.11082 17.1937 3.25388C17.6833 3.44419 18.0337 3.67257 18.4012 4.04007C18.7687 4.40757 18.9958 4.75669 19.1861 5.24757C19.3304 5.61638 19.5011 6.17288 19.547 7.19663C19.5982 8.30307 19.6087 8.63513 19.6087 11.4373C19.6087 14.2395 19.5982 14.5729 19.547 15.6793C19.5011 16.7031 19.3291 17.2583 19.1861 17.6284C19.0165 18.0837 18.748 18.4957 18.3999 18.8346C18.0324 19.2021 17.6833 19.4291 17.1924 19.6194C16.8249 19.7638 16.2684 19.9344 15.2433 19.9817C14.1369 20.0316 13.8048 20.0434 11.0013 20.0434C8.19781 20.0434 7.86444 20.0316 6.758 19.9817C5.73425 19.9344 5.17906 19.7638 4.80894 19.6194C4.35328 19.4505 3.94085 19.1824 3.60144 18.8346C3.25267 18.4954 2.98368 18.083 2.81394 17.6271C2.67088 17.2583 2.49894 16.7018 2.453 15.678C2.40313 14.5716 2.39263 14.2395 2.39263 11.4347C2.39263 8.62988 2.40313 8.30044 2.453 7.194C2.50025 6.17025 2.67088 5.61375 2.81525 5.24363C3.00556 4.75407 3.23394 4.40363 3.60144 4.03613C3.96894 3.66863 4.31806 3.44157 4.80894 3.25125C5.17906 3.10688 5.73425 2.93625 6.758 2.889C7.72662 2.84438 8.102 2.83125 10.0589 2.82994V2.83257ZM16.6057 4.57557C16.4402 4.57557 16.2764 4.60816 16.1235 4.67148C15.9706 4.7348 15.8317 4.82761 15.7147 4.94461C15.5977 5.06161 15.5049 5.20052 15.4416 5.35339C15.3783 5.50626 15.3457 5.6701 15.3457 5.83557C15.3457 6.00103 15.3783 6.16488 15.4416 6.31775C15.5049 6.47062 15.5977 6.60952 15.7147 6.72652C15.8317 6.84352 15.9706 6.93633 16.1235 6.99965C16.2764 7.06298 16.4402 7.09557 16.6057 7.09557C16.9399 7.09557 17.2603 6.96282 17.4966 6.72652C17.7329 6.49023 17.8657 6.16974 17.8657 5.83557C17.8657 5.50139 17.7329 5.18091 17.4966 4.94461C17.2603 4.70832 16.9399 4.57557 16.6057 4.57557ZM11.0013 6.04819C10.2861 6.03703 9.5758 6.16827 8.91178 6.43425C8.24777 6.70024 7.6433 7.09566 7.13357 7.5975C6.62384 8.09933 6.21904 8.69756 5.94273 9.35735C5.66642 10.0171 5.52412 10.7253 5.52412 11.4406C5.52412 12.1559 5.66642 12.8641 5.94273 13.5239C6.21904 14.1836 6.62384 14.7819 7.13357 15.2837C7.6433 15.7855 8.24777 16.181 8.91178 16.4469C9.5758 16.7129 10.2861 16.8442 11.0013 16.833C12.4169 16.8109 13.767 16.2331 14.7603 15.2242C15.7535 14.2153 16.3102 12.8564 16.3102 11.4406C16.3102 10.0248 15.7535 8.66586 14.7603 7.65699C13.767 6.64812 12.4169 6.07028 11.0013 6.04819ZM11.0013 7.9395C11.461 7.9395 11.9162 8.03005 12.3409 8.20596C12.7656 8.38187 13.1515 8.63971 13.4765 8.96476C13.8015 9.2898 14.0594 9.67569 14.2353 10.1004C14.4112 10.5251 14.5017 10.9803 14.5017 11.4399C14.5017 11.8996 14.4112 12.3548 14.2353 12.7795C14.0594 13.2042 13.8015 13.5901 13.4765 13.9151C13.1515 14.2402 12.7656 14.498 12.3409 14.6739C11.9162 14.8498 11.461 14.9404 11.0013 14.9404C10.0729 14.9404 9.18259 14.5716 8.52613 13.9151C7.86967 13.2587 7.50087 12.3683 7.50087 11.4399C7.50087 10.5116 7.86967 9.62122 8.52613 8.96476C9.18259 8.3083 10.0729 7.9395 11.0013 7.9395Z" fill="#311807"/>
</svg>
