<svg width="33" height="33" viewBox="0 0 33 33" fill="none" xmlns="http://www.w3.org/2000/svg">
<path d="M23.0775 24.5C23.7847 24.5 24.463 24.7809 24.9631 25.281C25.4632 25.7811 25.7441 26.4594 25.7441 27.1666C25.7441 27.8739 25.4632 28.5521 24.9631 29.0522C24.463 29.5523 23.7847 29.8333 23.0775 29.8333C22.3702 29.8333 21.692 29.5523 21.1919 29.0522C20.6918 28.5521 20.4108 27.8739 20.4108 27.1666C20.4108 25.6866 21.5975 24.5 23.0775 24.5ZM1.74414 3.16663H6.10414L7.35747 5.83329H27.0775C27.4311 5.83329 27.7702 5.97377 28.0203 6.22382C28.2703 6.47387 28.4108 6.813 28.4108 7.16663C28.4108 7.39329 28.3441 7.61996 28.2508 7.83329L23.4775 16.46C23.0241 17.2733 22.1441 17.8333 21.1441 17.8333H11.2108L10.0108 20.0066L9.97081 20.1666C9.97081 20.255 10.0059 20.3398 10.0684 20.4023C10.1309 20.4648 10.2157 20.5 10.3041 20.5H25.7441V23.1666H9.74414C9.0369 23.1666 8.35862 22.8857 7.85852 22.3856C7.35843 21.8855 7.07747 21.2072 7.07747 20.5C7.07747 20.0333 7.19747 19.5933 7.39747 19.22L9.21081 15.9533L4.41081 5.83329H1.74414V3.16663ZM9.74414 24.5C10.4514 24.5 11.1297 24.7809 11.6298 25.281C12.1299 25.7811 12.4108 26.4594 12.4108 27.1666C12.4108 27.8739 12.1299 28.5521 11.6298 29.0522C11.1297 29.5523 10.4514 29.8333 9.74414 29.8333C9.0369 29.8333 8.35862 29.5523 7.85852 29.0522C7.35843 28.5521 7.07747 27.8739 7.07747 27.1666C7.07747 25.6866 8.26414 24.5 9.74414 24.5ZM21.7441 15.1666L25.4508 8.49996H8.59747L11.7441 15.1666H21.7441Z" fill="#311807"/>
</svg>
