<svg width="40" height="40" viewBox="0 0 40 40" fill="none" xmlns="http://www.w3.org/2000/svg">
<path d="M20.0003 6.66663C21.7684 6.66663 23.4641 7.369 24.7144 8.61925C25.9646 9.86949 26.667 11.5652 26.667 13.3333C26.667 15.1014 25.9646 16.7971 24.7144 18.0473C23.4641 19.2976 21.7684 20 20.0003 20C18.2322 20 16.5365 19.2976 15.2863 18.0473C14.036 16.7971 13.3337 15.1014 13.3337 13.3333C13.3337 11.5652 14.036 9.86949 15.2863 8.61925C16.5365 7.369 18.2322 6.66663 20.0003 6.66663ZM20.0003 9.99996C19.1163 9.99996 18.2684 10.3511 17.6433 10.9763C17.0182 11.6014 16.667 12.4492 16.667 13.3333C16.667 14.2173 17.0182 15.0652 17.6433 15.6903C18.2684 16.3154 19.1163 16.6666 20.0003 16.6666C20.8844 16.6666 21.7322 16.3154 22.3573 15.6903C22.9825 15.0652 23.3337 14.2173 23.3337 13.3333C23.3337 12.4492 22.9825 11.6014 22.3573 10.9763C21.7322 10.3511 20.8844 9.99996 20.0003 9.99996ZM20.0003 21.6666C24.4503 21.6666 33.3337 23.8833 33.3337 28.3333V33.3333H6.66699V28.3333C6.66699 23.8833 15.5503 21.6666 20.0003 21.6666ZM20.0003 24.8333C15.0503 24.8333 9.83366 27.2666 9.83366 28.3333V30.1666H30.167V28.3333C30.167 27.2666 24.9503 24.8333 20.0003 24.8333Z" fill="#311807"/>
</svg>
