<svg width="26" height="27" viewBox="0 0 26 27" fill="none" xmlns="http://www.w3.org/2000/svg">
<path d="M13.0003 2.66675C18.9836 2.66675 23.8337 7.51683 23.8337 13.5001C23.8337 19.4833 18.9836 24.3334 13.0003 24.3334C11.1565 24.336 9.34269 23.8661 7.73208 22.9684L7.40167 22.7756L4.117 23.7419C3.93825 23.7946 3.74902 23.8007 3.56723 23.7598C3.38544 23.7188 3.21712 23.6321 3.07823 23.5079C2.93935 23.3836 2.83449 23.226 2.77361 23.0499C2.71272 22.8737 2.69783 22.685 2.73033 22.5015L2.7585 22.3834L3.72483 19.0987C2.70331 17.4101 2.16449 15.4737 2.167 13.5001C2.167 7.51683 7.01708 2.66675 13.0003 2.66675ZM13.0003 4.83342C11.4486 4.83313 9.92525 5.24948 8.58936 6.03896C7.25347 6.82845 6.15405 7.96213 5.40591 9.3216C4.65777 10.6811 4.28835 12.2165 4.33622 13.7675C4.3841 15.3185 4.84752 16.8282 5.67808 18.1389C5.89258 18.4769 5.98467 18.8929 5.91208 19.3057L5.86983 19.4823L5.39208 21.1083L7.01817 20.6306C7.48725 20.4919 7.97475 20.5764 8.3615 20.8223C9.49719 21.5414 10.7846 21.9865 12.1219 22.1224C13.4592 22.2582 14.8098 22.0812 16.0669 21.6051C17.324 21.1291 18.4532 20.3672 19.3651 19.3796C20.277 18.3921 20.9467 17.2059 21.3213 15.9149C21.6958 14.624 21.765 13.2636 21.5232 11.9413C21.2814 10.619 20.7354 9.37107 19.9282 8.29616C19.1211 7.22125 18.075 6.34882 16.8726 5.74784C15.6702 5.14686 14.3445 4.8338 13.0003 4.83342ZM9.86084 8.28275C9.98089 8.23134 10.1122 8.2118 10.242 8.22604C10.3718 8.24027 10.4958 8.2878 10.6018 8.364C11.1478 8.76267 11.5812 9.29783 11.9538 9.82L12.3081 10.3335L12.4738 10.5772C12.5698 10.717 12.617 10.8845 12.608 11.0537C12.599 11.223 12.5343 11.3845 12.424 11.5132L12.3428 11.5956L11.3418 12.3387C11.2941 12.3741 11.2606 12.4252 11.2473 12.483C11.234 12.5408 11.2418 12.6014 11.2692 12.654C11.4967 13.0657 11.8986 13.6799 12.3601 14.1414C12.8227 14.6029 13.4651 15.0319 13.9049 15.2843C14.0003 15.3385 14.1151 15.3212 14.1931 15.2508L14.2343 15.202L14.8853 14.2107C15.0047 14.0513 15.1812 13.9444 15.3778 13.9124C15.5744 13.8805 15.7757 13.9261 15.9394 14.0396L16.5277 14.4502C17.1127 14.8672 17.6749 15.3158 18.1202 15.8845C18.2025 15.9914 18.2549 16.1183 18.2719 16.2522C18.2888 16.3861 18.2697 16.522 18.2166 16.6461C17.7876 17.6471 16.701 18.4997 15.5722 18.4585L15.3999 18.4477L15.193 18.4282L15.076 18.413L14.8182 18.3697C13.8172 18.1812 12.2128 17.6135 10.5498 15.9517C8.888 14.2887 8.32033 12.6843 8.13183 11.6833L8.0885 11.4255L8.06142 11.2002L8.04733 11.0106L8.043 10.9293C8.00183 9.79833 8.85875 8.71175 9.86084 8.28275Z" fill="#311807"/>
</svg>
