<svg width="24" height="25" viewBox="0 0 24 25" fill="none" xmlns="http://www.w3.org/2000/svg">
<path d="M7.77204 2.87912L8.84904 2.53512C9.85704 2.21312 10.935 2.73412 11.367 3.75212L12.227 5.78012C12.602 6.66312 12.394 7.70212 11.713 8.34812L9.82004 10.1461C9.93671 11.2221 10.298 12.2811 10.904 13.3231C11.4803 14.331 12.2525 15.2133 13.175 15.9181L15.451 15.1581C16.313 14.8711 17.252 15.2021 17.781 15.9791L19.013 17.7891C19.629 18.6931 19.518 19.9391 18.755 20.7051L17.937 21.5261C17.123 22.3431 15.961 22.6401 14.885 22.3041C12.3464 21.5121 10.012 19.1611 7.88204 15.2511C5.74937 11.3345 4.99671 8.01178 5.62404 5.28312C5.88804 4.13512 6.70604 3.22012 7.77404 2.87912" fill="#311807"/>
</svg>
