<svg width="35" height="35" viewBox="0 0 35 35" fill="none" xmlns="http://www.w3.org/2000/svg">
<circle cx="17.5" cy="17.5" r="17.5" fill="#FFB729"/>
<path d="M26.8215 13.7175C26.7295 13.5948 26.6067 13.4944 26.4635 13.4251C26.3204 13.3558 26.1611 13.3195 25.9995 13.3195H12.3329L11.1789 10.7611C11.028 10.4239 10.7719 10.1357 10.4432 9.93344C10.1144 9.73112 9.72796 9.62376 9.33294 9.62501H7V11.4722H9.33294L14.0768 21.9876C14.1528 22.1558 14.281 22.2995 14.4452 22.4006C14.6095 22.5017 14.8024 22.5556 14.9998 22.5556H22.9996C23.4166 22.5556 23.7896 22.3164 23.9366 21.9571L26.9365 14.5682C26.9932 14.4284 27.0123 14.278 26.9923 14.1298C26.9723 13.9816 26.9137 13.8402 26.8215 13.7175ZM22.3066 20.7084H15.6668L13.1668 15.1667H24.5565L22.3066 20.7084Z" fill="#311807"/>
<path d="M15.5 26.2498C16.3284 26.2498 16.9999 25.6296 16.9999 24.8644C16.9999 24.0993 16.3284 23.479 15.5 23.479C14.6716 23.479 14 24.0993 14 24.8644C14 25.6296 14.6716 26.2498 15.5 26.2498Z" fill="#311807"/>
<path d="M22.5 26.2498C23.3284 26.2498 23.9999 25.6296 23.9999 24.8644C23.9999 24.0993 23.3284 23.479 22.5 23.479C21.6716 23.479 21 24.0993 21 24.8644C21 25.6296 21.6716 26.2498 22.5 26.2498Z" fill="#311807"/>
</svg>
