<svg width="18" height="19" viewBox="0 0 18 19" fill="none" xmlns="http://www.w3.org/2000/svg">
<path d="M16.2825 15.7176L13.5 12.9576C14.5801 11.6109 15.1032 9.90152 14.9617 8.18103C14.8201 6.46053 14.0248 4.85964 12.7392 3.70753C11.4536 2.55543 9.7754 1.93968 8.04974 1.9869C6.32408 2.03412 4.68209 2.74072 3.46141 3.96141C2.24072 5.18209 1.53412 6.82408 1.4869 8.54974C1.43968 10.2754 2.05543 11.9536 3.20753 13.2392C4.35964 14.5248 5.96053 15.3201 7.68102 15.4617C9.40152 15.6032 11.1109 15.0801 12.4576 14.0001L15.2176 16.7601C15.2873 16.8303 15.3702 16.8861 15.4616 16.9242C15.553 16.9623 15.651 16.9819 15.75 16.9819C15.8491 16.9819 15.9471 16.9623 16.0385 16.9242C16.1299 16.8861 16.2128 16.8303 16.2825 16.7601C16.4177 16.6202 16.4933 16.4333 16.4933 16.2388C16.4933 16.0443 16.4177 15.8574 16.2825 15.7176ZM8.25005 14.0001C7.2117 14.0001 6.19666 13.6921 5.33331 13.1153C4.46995 12.5384 3.79704 11.7185 3.39968 10.7591C3.00232 9.79983 2.89836 8.74423 3.10093 7.72583C3.3035 6.70743 3.80351 5.77197 4.53774 5.03774C5.27197 4.30351 6.20743 3.8035 7.22583 3.60093C8.24423 3.39836 9.29983 3.50232 10.2591 3.89968C11.2185 4.29704 12.0384 4.96995 12.6153 5.83331C13.1921 6.69666 13.5 7.7117 13.5 8.75005C13.5 10.1424 12.9469 11.4778 11.9624 12.4624C10.9778 13.4469 9.64244 14.0001 8.25005 14.0001Z" fill="#311807"/>
</svg>
